<?xml version='1.0' encoding='ascii'?>
<svg xmlns="http://www.w3.org/2000/svg" xmlns:inkscape="http://www.inkscape.org/namespaces/inkscape" class="svg-scaling" version="1.1"  viewBox="0 0 960 550">
    <text id="text-scroll" x="50" y="75" fill="#00D1B2" font-size="45" font-family="Lucida Console, Monaco, monospace">
        <animate attributeName="x" begin="0s" from="100%" to="-10%" dur="15s" repeatCount="indefinite" />
        kein Lied ausgew&#x00E4;hlt
    </text>
    <text class="is-hidden" id="loading" x="357" y="525" fill="#00D1B2" font-size="60" font-family="Lucida Console, Monaco, monospace">
        <animate attributeName="fill" values="#00D1B2;#57D1BB;#89D1BB;#B8D1C2;#89D1BB;#57D1BB" dur="1.2s" repeatCount="indefinite" />
        Loading
    </text>
    <text class="is-hidden" id="paused" x="357" y="525" fill="#00D1B2" font-size="60" font-family="Lucida Console, Monaco, monospace">
        <animate attributeName="fill" values="#00D1B2;#57D1BB;#89D1BB;#B8D1C2;#89D1BB;#57D1BB" dur="1.2s" repeatCount="indefinite" />
        Paused
    </text>

    <g id="RenderLayer_LineSet" inkscape:groupmode="lineset" inkscape:label="RenderLayer_LineSet">
        <g id="frame_0001" inkscape:groupmode="frame" inkscape:label="frame_0001">
            <g id="fills" inkscape:groupmode="layer" inkscape:label="fills">
                <path d=" M 394.250, 173.687 394.250, 297.866 326.844, 387.663 372.875, 387.717 376.067, 384.210 452.772, 276.611 472.026, 321.504 494.303, 321.504 513.560, 277.570 586.511, 384.452 589.782, 387.967 638.601, 388.023 572.335, 298.380 572.335, 173.687 539.112, 173.687 537.351, 176.557 516.965, 223.480 506.758, 209.672 460.494, 209.618 451.743, 221.277 432.869, 176.557 431.421, 173.687 394.250, 173.687  z M 529.712, 240.722 546.489, 202.444 546.489, 263.417 529.712, 240.722  z  M 437.295, 240.524 419.900, 263.697 419.900, 199.971 437.295, 240.524  z  M 482.167, 232.641 483.383, 230.431 484.570, 232.647 485.803, 234.889 487.083, 237.158 488.410, 239.452 489.784, 241.773 491.205, 244.120 492.673, 246.494 494.188, 248.894 495.750, 251.320 497.358, 253.772 499.014, 256.250 500.717, 258.755 501.281, 259.580 500.628, 261.083 499.899, 262.761 499.120, 264.555 498.315, 266.408 497.511, 268.260 496.731, 270.055 496.003, 271.733 495.350, 273.236 494.798, 274.507 494.373, 275.486 494.099, 276.117 494.002, 276.340 492.935, 278.816 491.916, 281.190 490.945, 283.462 490.022, 285.632 489.147, 287.701 488.320, 289.667 487.542, 291.532 486.811, 293.295 486.128, 294.956 485.494, 296.515 484.907, 297.972 484.369, 299.327 483.893, 298.104 483.373, 296.781 482.809, 295.359 482.200, 293.838 481.546, 292.218 480.848, 290.498 480.105, 288.680 479.318, 286.762 478.486, 284.745 477.609, 282.629 476.688, 280.413 475.723, 278.099 474.922, 276.201 474.028, 274.083 473.072, 271.819 472.085, 269.480 471.099, 267.142 470.143, 264.877 469.249, 262.759 468.448, 260.861 467.771, 259.258 467.250, 258.021 466.914, 257.225 466.795, 256.944 468.344, 254.735 469.862, 252.525 471.351, 250.316 472.809, 248.107 474.236, 245.898 475.634, 243.688 477.001, 241.479 478.338, 239.269 479.645, 237.060 480.921, 234.850 482.167, 232.641  z" fill="rgb(0, 209, 178)" fill-opacity="1.0" fill_rule="evenodd" stroke="none" />
            </g>
            <g id="strokes" inkscape:groupmode="layer" inkscape:label="strokes">
                <path d=" M 451.743, 221.277 447.854, 212.064 443.966, 202.851 440.078, 193.638 436.189, 184.425 432.869, 176.557 431.421, 173.687 421.421, 173.687 411.421, 173.687 401.421, 173.687 394.250, 173.687 394.250, 183.687 394.250, 193.687 394.250, 203.687 394.250, 213.687 394.250, 223.687 394.250, 233.687 394.250, 243.687 394.250, 253.687 394.250, 263.687 394.250, 273.687 394.250, 283.687 394.250, 293.687 394.250, 297.866 388.247, 305.864 382.243, 313.861 376.240, 321.859 370.237, 329.856 364.233, 337.854 358.230, 345.851 352.227, 353.849 346.223, 361.846 340.220, 369.844 334.217, 377.841 328.213, 385.839 326.844, 387.663 336.844, 387.675 346.844, 387.687 356.844, 387.698 366.844, 387.710 372.875, 387.717 376.067, 384.210 381.871, 376.067 387.676, 367.924 393.481, 359.782 399.286, 351.639 405.091, 343.496 410.896, 335.353 416.700, 327.211 422.505, 319.068 428.310, 310.925 434.115, 302.782 439.920, 294.640 445.724, 286.497 451.529, 278.354 452.772, 276.611 " fill="none" stroke="rgb(0, 0, 0)" stroke-linecap="butt" stroke-linejoin="bevel" stroke-opacity="1.0" stroke-width="3.0" />
                <path d=" M 431.421, 173.687 435.310, 182.900 439.198, 192.113 443.086, 201.326 446.975, 210.539 450.863, 219.752 451.591, 221.479 451.743, 221.277 457.746, 213.280 460.494, 209.618 470.494, 209.630 480.494, 209.641 490.494, 209.653 500.494, 209.664 506.758, 209.672 512.702, 217.713 516.965, 223.480 517.289, 223.918 " fill="none" stroke="rgb(0, 0, 0)" stroke-linecap="butt" stroke-linejoin="bevel" stroke-opacity="1.0" stroke-width="3.0" />
                <path d=" M 517.289, 223.918 521.274, 214.746 525.259, 205.574 529.243, 196.402 533.228, 187.231 537.213, 178.059 539.112, 173.687 " fill="none" stroke="rgb(0, 0, 0)" stroke-linecap="butt" stroke-linejoin="bevel" stroke-opacity="1.0" stroke-width="3.0" />
                <path d=" M 513.560, 277.570 519.197, 285.830 524.835, 294.089 530.472, 302.349 536.109, 310.608 541.747, 318.868 547.384, 327.127 553.022, 335.387 558.659, 343.646 564.297, 351.906 569.934, 360.165 575.572, 368.425 581.209, 376.684 586.511, 384.452 589.782, 387.967 599.782, 387.978 609.782, 387.990 619.782, 388.001 629.782, 388.013 638.601, 388.023 632.657, 379.981 626.712, 371.940 620.768, 363.898 614.823, 355.857 608.879, 347.816 602.935, 339.774 596.990, 331.733 591.046, 323.691 585.101, 315.650 579.157, 307.609 573.213, 299.567 572.335, 298.380 572.335, 288.380 572.335, 278.380 572.335, 268.380 572.335, 258.380 572.335, 248.380 572.335, 238.380 572.335, 228.380 572.335, 218.380 572.335, 208.380 572.335, 198.380 572.335, 188.380 572.335, 178.380 572.335, 173.687 562.335, 173.687 552.335, 173.687 542.335, 173.687 539.112, 173.687 537.351, 176.557 533.366, 185.729 529.381, 194.900 525.397, 204.072 521.412, 213.244 517.427, 222.416 516.965, 223.480 " fill="none" stroke="rgb(0, 0, 0)" stroke-linecap="butt" stroke-linejoin="bevel" stroke-opacity="1.0" stroke-width="3.0" />
                <path d=" M 418.054, 195.668 418.054, 205.668 418.054, 215.668 418.054, 225.668 418.054, 235.668 418.054, 245.668 418.054, 255.668 418.054, 266.156 419.900, 263.697 425.903, 255.699 431.906, 247.702 437.295, 240.524 433.353, 231.334 429.411, 222.144 425.468, 212.953 421.526, 203.763 419.900, 199.971 418.054, 195.668 " fill="none" stroke="rgb(0, 0, 0)" stroke-linecap="butt" stroke-linejoin="bevel" stroke-opacity="1.0" stroke-width="3.0" />
                <path d=" M 548.531, 266.179 546.489, 263.417 540.545, 255.376 534.600, 247.334 529.712, 240.722 533.726, 231.563 537.741, 222.404 541.755, 213.245 545.769, 204.086 546.489, 202.444 548.531, 197.785 " fill="none" stroke="rgb(0, 0, 0)" stroke-linecap="butt" stroke-linejoin="bevel" stroke-opacity="1.0" stroke-width="3.0" />
                <path d=" M 548.531, 266.179 548.531, 256.179 548.531, 246.179 548.531, 236.179 548.531, 226.179 548.531, 216.179 548.531, 206.179 548.531, 197.785 " fill="none" stroke="rgb(0, 0, 0)" stroke-linecap="butt" stroke-linejoin="bevel" stroke-opacity="1.0" stroke-width="3.0" />
                <path d=" M 483.487, 229.216 482.234, 231.493 480.950, 233.771 479.634, 236.048 478.287, 238.326 476.909, 240.603 475.500, 242.880 474.059, 245.157 472.588, 247.435 471.085, 249.712 469.551, 251.989 467.986, 254.266 466.389, 256.543 " fill="none" stroke="rgb(0, 0, 0)" stroke-linecap="butt" stroke-linejoin="bevel" stroke-opacity="1.0" stroke-width="3.0" />
                <path d=" M 501.934, 259.259 501.353, 258.410 499.598, 255.828 497.891, 253.274 496.233, 250.746 494.623, 248.245 493.062, 245.772 491.549, 243.326 490.084, 240.906 488.668, 238.514 487.300, 236.149 485.981, 233.811 484.710, 231.500 483.487, 229.216 483.383, 230.431 " fill="none" stroke="rgb(0, 0, 0)" stroke-linecap="butt" stroke-linejoin="bevel" stroke-opacity="1.0" stroke-width="3.0" />
                <path d=" M 466.795, 256.944 466.389, 256.543 466.512, 256.833 466.858, 257.653 467.396, 258.928 468.093, 260.581 468.919, 262.537 469.840, 264.720 470.825, 267.054 471.842, 269.464 472.859, 271.874 473.845, 274.209 474.766, 276.392 475.591, 278.348 476.587, 280.733 477.536, 283.017 478.439, 285.198 479.297, 287.277 480.108, 289.253 480.874, 291.128 481.594, 292.900 482.267, 294.570 482.895, 296.138 483.477, 297.604 484.013, 298.967 484.503, 300.228 " fill="none" stroke="rgb(0, 0, 0)" stroke-linecap="butt" stroke-linejoin="bevel" stroke-opacity="1.0" stroke-width="3.0" />
                <path d=" M 484.369, 299.327 484.503, 300.228 485.058, 298.831 485.662, 297.329 486.316, 295.722 487.020, 294.010 487.773, 292.193 488.576, 290.271 489.428, 288.244 490.330, 286.112 491.281, 283.875 492.282, 281.533 493.332, 279.086 494.432, 276.534 494.532, 276.305 494.814, 275.655 495.252, 274.645 495.821, 273.335 496.494, 271.786 497.245, 270.056 498.048, 268.207 498.878, 266.297 499.707, 264.388 500.510, 262.539 501.261, 260.809 501.934, 259.259 501.281, 259.580 " fill="none" stroke="rgb(0, 0, 0)" stroke-linecap="butt" stroke-linejoin="bevel" stroke-opacity="1.0" stroke-width="3.0" />
                <path d=" M 513.901, 276.793 513.560, 277.570 509.545, 286.729 505.531, 295.888 501.516, 305.047 497.502, 314.206 494.303, 321.504 484.303, 321.504 474.303, 321.504 472.026, 321.504 468.085, 312.314 464.143, 303.123 460.201, 293.933 456.260, 284.742 452.772, 276.611 452.512, 276.005 446.707, 284.148 440.903, 292.291 435.098, 300.434 429.293, 308.576 423.488, 316.719 417.683, 324.862 411.879, 333.004 406.074, 341.147 400.269, 349.290 394.464, 357.433 388.659, 365.575 382.855, 373.718 377.050, 381.861 372.875, 387.717 " fill="none" stroke="rgb(0, 0, 0)" stroke-linecap="butt" stroke-linejoin="bevel" stroke-opacity="1.0" stroke-width="3.0" />
                <path d=" M 589.782, 387.967 584.144, 379.707 578.507, 371.448 572.869, 363.188 567.232, 354.929 561.594, 346.669 555.957, 338.410 550.320, 330.150 544.682, 321.891 539.045, 313.631 533.407, 305.372 527.770, 297.112 522.132, 288.853 516.495, 280.593 513.901, 276.793 " fill="none" stroke="rgb(0, 0, 0)" stroke-linecap="butt" stroke-linejoin="bevel" stroke-opacity="1.0" stroke-width="3.0" />
                <path d=" M 482.167, 232.641 483.383, 230.431 484.570, 232.647 485.803, 234.889 487.083, 237.158 488.410, 239.452 489.784, 241.773 491.205, 244.120 492.673, 246.494 494.188, 248.894 495.750, 251.320 497.358, 253.772 499.014, 256.250 500.717, 258.755 501.281, 259.580 500.628, 261.083 499.899, 262.761 499.120, 264.555 498.315, 266.408 497.511, 268.260 496.731, 270.055 496.003, 271.733 495.350, 273.236 494.798, 274.507 494.373, 275.486 494.099, 276.117 494.002, 276.340 492.935, 278.816 491.916, 281.190 490.945, 283.462 490.022, 285.632 489.147, 287.701 488.320, 289.667 487.542, 291.532 486.811, 293.295 486.128, 294.956 485.494, 296.515 484.907, 297.972 484.369, 299.327 483.893, 298.104 483.373, 296.781 482.809, 295.359 482.200, 293.838 481.546, 292.218 480.848, 290.498 480.105, 288.680 479.318, 286.762 478.486, 284.745 477.609, 282.629 476.688, 280.413 475.723, 278.099 474.922, 276.201 474.028, 274.083 473.072, 271.819 472.085, 269.480 471.099, 267.142 470.143, 264.877 469.249, 262.759 468.448, 260.861 467.771, 259.258 467.250, 258.021 466.914, 257.225 466.795, 256.944 468.344, 254.735 469.862, 252.525 471.351, 250.316 472.809, 248.107 474.236, 245.898 475.634, 243.688 477.001, 241.479 478.338, 239.269 479.645, 237.060 480.921, 234.850 482.167, 232.641 " fill="none" stroke="rgb(0, 0, 0)" stroke-linecap="butt" stroke-linejoin="bevel" stroke-opacity="1.0" stroke-width="3.0" />
                <path d=" M 419.900, 263.697 419.900, 253.697 419.900, 243.697 419.900, 233.697 419.900, 223.697 419.900, 213.697 419.900, 203.697 419.900, 199.971 " fill="none" stroke="rgb(0, 0, 0)" stroke-linecap="butt" stroke-linejoin="bevel" stroke-opacity="1.0" stroke-width="3.0" />
                <path d=" M 546.489, 202.444 546.489, 212.444 546.489, 222.444 546.489, 232.444 546.489, 242.444 546.489, 252.444 546.489, 262.444 546.489, 263.417 " fill="none" stroke="rgb(0, 0, 0)" stroke-linecap="butt" stroke-linejoin="bevel" stroke-opacity="1.0" stroke-width="3.0" />
            </g>
        </g>
    </g>
</svg>
